<svg width="374" height="276" viewBox="0 0 374 276" fill="none" xmlns="http://www.w3.org/2000/svg">
<path d="M255.725 242.471C255.725 311.903 199.518 368.188 130.186 368.188C60.8528 368.188 4.64558 311.903 4.64558 242.471C4.64561 173.038 60.8528 116.753 130.186 116.753C199.518 116.753 255.725 173.038 255.725 242.471Z" stroke="#6246E5"/>
<path d="M283.918 232.506C283.918 310.194 221.029 373.17 143.453 373.17C65.8772 373.17 2.98758 310.194 2.98738 232.506C2.98738 154.819 65.8771 91.8413 143.453 91.8413C221.029 91.8415 283.918 154.819 283.918 232.506Z" stroke="#6246E5"/>
<path d="M307.965 224.203C307.965 309.228 239.136 378.153 154.232 378.153C69.3292 378.153 0.500306 309.228 0.500071 224.203C0.500075 139.178 69.3291 70.2518 154.232 70.2518C239.136 70.2519 307.965 139.178 307.965 224.203Z" stroke="#6246E5"/>
<path d="M335.329 215.899C335.329 307.345 261.302 381.475 169.987 381.475C78.6728 381.475 4.64661 307.344 4.64656 215.899C4.64656 124.453 78.6727 50.3229 169.987 50.3226C261.302 50.3226 335.329 124.453 335.329 215.899Z" stroke="#6246E5"/>
<path d="M361.863 208.01C361.863 305.647 282.824 384.796 185.327 384.796C87.8302 384.796 8.79206 305.647 8.79206 208.01C8.7921 110.373 87.8302 31.224 185.327 31.2238C282.824 31.2238 361.863 110.373 361.863 208.01Z" stroke="#6246E5"/>
<path d="M396.69 194.725C396.69 301.992 309.856 388.948 202.741 388.948C95.6271 388.948 8.79229 301.992 8.79206 194.725C8.79207 87.457 95.627 0.500136 202.741 0.500009C309.856 0.500014 396.691 87.4569 396.69 194.725Z" stroke="#6246E5"/>
</svg>
