<svg width="23" height="18" viewBox="0 0 23 18" fill="none" xmlns="http://www.w3.org/2000/svg">
<path d="M19.8457 17.8597C19.3956 17.8689 18.9534 17.7401 18.5786 17.4906C18.2996 17.3083 17.9736 17.2113 17.6403 17.2113C17.3071 17.2113 16.981 17.3083 16.702 17.4906C16.3234 17.7317 15.8839 17.8597 15.4351 17.8597C14.9862 17.8597 14.5467 17.7317 14.1681 17.4906C13.8891 17.3081 13.563 17.211 13.2297 17.211C12.8963 17.211 12.5702 17.3081 12.2912 17.4906C11.9126 17.7317 11.4731 17.8597 11.0243 17.8597C10.5754 17.8597 10.1359 17.7317 9.75729 17.4906C9.47852 17.3083 9.15262 17.2111 8.8195 17.2111C8.48638 17.2111 8.16049 17.3083 7.88172 17.4906C7.53845 17.7187 7.13784 17.8455 6.72583 17.8565L6.70312 17.2078C7.00746 17.2006 7.303 17.1043 7.55318 16.9308C7.9317 16.6898 8.37111 16.5618 8.81983 16.5618C9.26855 16.5618 9.70796 16.6898 10.0865 16.9308C10.3654 17.1132 10.6915 17.2103 11.0247 17.2103C11.358 17.2103 11.6841 17.1132 11.963 16.9308C12.3417 16.6896 12.7813 16.5615 13.2303 16.5615C13.6793 16.5615 14.1189 16.6896 14.4976 16.9308C14.7766 17.1132 15.1026 17.2103 15.4359 17.2103C15.7692 17.2103 16.0952 17.1132 16.3742 16.9308C16.7528 16.6899 17.1923 16.5619 17.6411 16.5619C18.0899 16.5619 18.5295 16.6899 18.9081 16.9308C19.1877 17.1136 19.5146 17.211 19.8486 17.211C20.1827 17.211 20.5096 17.1136 20.7892 16.9308C21.1636 16.6821 21.605 16.5535 22.0544 16.5624V17.211C21.7198 17.2019 21.391 17.2997 21.1158 17.4903C20.74 17.7401 20.2969 17.869 19.8457 17.8597V17.8597Z" fill="white"/>
<path d="M2.2054 17.8597C1.75534 17.869 1.31323 17.7402 0.938594 17.4906C0.66347 17.2999 0.334649 17.2019 0 17.2111V16.5624C0.45017 16.5531 0.892396 16.6819 1.26713 16.9315C1.54211 17.1223 1.87085 17.2202 2.2054 17.2111C2.54011 17.2203 2.86899 17.1222 3.144 16.9312C3.51794 16.6817 3.95944 16.553 4.40886 16.5624C4.8474 16.5526 5.27867 16.6754 5.64616 16.9149L5.31892 17.4747C5.05049 17.2941 4.73229 17.2019 4.40886 17.2111C4.07554 17.2021 3.74805 17.2998 3.47416 17.49C3.09909 17.7403 2.65621 17.8693 2.2054 17.8597V17.8597Z" fill="white"/>
<path d="M19.8464 15.5891C19.3959 15.5983 18.9534 15.4695 18.5783 15.22C18.2991 15.0376 17.9727 14.9404 17.6392 14.9404C17.3056 14.9404 16.9793 15.0376 16.7001 15.22C16.3215 15.461 15.8821 15.589 15.4333 15.589C14.9845 15.589 14.5451 15.461 14.1665 15.22C13.8877 15.0377 13.5617 14.9406 13.2285 14.9406C12.8954 14.9406 12.5694 15.0377 12.2906 15.22C11.912 15.4611 11.4726 15.5891 11.0238 15.5891C10.575 15.5891 10.1355 15.4611 9.75697 15.22C9.47814 15.0377 9.15219 14.9406 8.81903 14.9406C8.48586 14.9406 8.15992 15.0377 7.88108 15.22C7.50646 15.4697 7.06434 15.5985 6.61427 15.5891C6.1642 15.5985 5.72208 15.4697 5.34746 15.22C5.07259 15.0293 4.74396 14.9314 4.40951 14.9405C4.07517 14.9314 3.74667 15.0293 3.47189 15.22C3.09786 15.4694 2.65645 15.5982 2.20703 15.5891C1.75686 15.5985 1.31463 15.4697 0.939892 15.22C0.664467 15.0289 0.335107 14.931 0 14.9405V14.2918C0.450063 14.2825 0.892172 14.4113 1.26681 14.6609C1.54194 14.8516 1.87076 14.9496 2.20541 14.9405C2.53975 14.9496 2.86825 14.8516 3.14303 14.6609C3.51706 14.4116 3.95847 14.2828 4.40789 14.2918C4.85829 14.2823 5.30079 14.4111 5.67568 14.6609C5.95065 14.8517 6.27939 14.9497 6.61395 14.9405C6.9485 14.9497 7.27724 14.8517 7.55222 14.6609C7.93076 14.4198 8.37023 14.2918 8.81903 14.2918C9.26782 14.2918 9.7073 14.4198 10.0858 14.6609C10.3647 14.8433 10.6907 14.9404 11.0239 14.9404C11.3572 14.9404 11.6832 14.8433 11.9621 14.6609C12.3406 14.4198 12.7801 14.2918 13.2289 14.2918C13.6777 14.2918 14.1171 14.4198 14.4957 14.6609C14.7746 14.8433 15.1006 14.9404 15.4338 14.9404C15.767 14.9404 16.093 14.8433 16.3719 14.6609C16.7508 14.4199 17.1906 14.2919 17.6397 14.2919C18.0888 14.2919 18.5285 14.4199 18.9075 14.6609C19.1868 14.8432 19.5133 14.9403 19.8469 14.9403C20.1805 14.9403 20.5069 14.8432 20.7863 14.6609C21.1613 14.4115 21.6037 14.2827 22.0541 14.2918V14.9405C21.7188 14.931 21.3892 15.029 21.1135 15.22C20.7386 15.4693 20.2965 15.5981 19.8464 15.5891V15.5891Z" fill="white"/>
<path d="M19.8453 13.3192C19.3951 13.3284 18.953 13.1996 18.5782 12.9501C18.303 12.7594 17.9742 12.6614 17.6396 12.6705C17.394 12.6621 17.1501 12.7145 16.9296 12.823L16.6436 12.2392C16.9532 12.0874 17.2948 12.0126 17.6396 12.0209C18.0902 12.0117 18.5329 12.1409 18.908 12.391C19.1876 12.5738 19.5145 12.6711 19.8485 12.6711C20.1826 12.6711 20.5094 12.5738 20.7891 12.391C21.1633 12.142 21.6046 12.0133 22.0539 12.0219V12.6705C21.7193 12.6614 21.3905 12.7592 21.1153 12.9498C20.7396 13.1996 20.2964 13.3285 19.8453 13.3192Z" fill="white"/>
<path d="M15.4314 13.3191C14.9819 13.3285 14.5404 13.1998 14.1665 12.9504C13.8875 12.7679 13.5614 12.6707 13.2281 12.6707C12.8947 12.6707 12.5686 12.7679 12.2896 12.9504C11.911 13.1914 11.4715 13.3194 11.0226 13.3194C10.5738 13.3194 10.1343 13.1914 9.75568 12.9504C9.47673 12.768 9.15068 12.6709 8.81741 12.6709C8.48413 12.6709 8.15809 12.768 7.87914 12.9504C7.50457 13.1995 7.06276 13.3282 6.61297 13.3191C6.16291 13.3284 5.7208 13.1996 5.34616 12.95C5.07104 12.7593 4.74222 12.6614 4.40757 12.6705C4.07424 12.6615 3.74676 12.7592 3.47287 12.9494C3.09816 13.1994 2.65577 13.3285 2.20541 13.3191C1.75534 13.3284 1.31323 13.1996 0.938595 12.95C0.66347 12.7593 0.334649 12.6614 0 12.6705V12.0218C0.45017 12.0125 0.892396 12.1413 1.26714 12.3909C1.54211 12.5817 1.87085 12.6796 2.20541 12.6705C2.54011 12.6797 2.86899 12.5816 3.144 12.3906C3.51794 12.1411 3.95944 12.0124 4.40887 12.0218C4.85893 12.0125 5.30103 12.1413 5.67568 12.3909C5.95065 12.5817 6.27939 12.6796 6.61395 12.6705C6.9486 12.6796 7.27742 12.5816 7.55254 12.3909C7.93116 12.1499 8.37068 12.0218 8.81951 12.0218C9.26835 12.0218 9.70787 12.1499 10.0865 12.3909C10.3654 12.5733 10.6915 12.6704 11.0248 12.6704C11.358 12.6704 11.6841 12.5733 11.963 12.3909C12.3417 12.1497 12.7813 12.0215 13.2303 12.0215C13.6793 12.0215 14.1189 12.1497 14.4976 12.3909C14.7834 12.5831 15.1222 12.6808 15.4664 12.6701C15.4914 12.6705 15.5164 12.6692 15.5413 12.6662L15.6276 13.3091C15.5625 13.3167 15.4969 13.32 15.4314 13.3191V13.3191Z" fill="white"/>
<path d="M19.8464 11.0485C19.3959 11.0577 18.9534 10.9289 18.5783 10.6794C18.2991 10.497 17.9727 10.3998 17.6392 10.3998C17.3056 10.3998 16.9793 10.497 16.7001 10.6794C16.3215 10.9204 15.8821 11.0484 15.4333 11.0484C14.9845 11.0484 14.5451 10.9204 14.1665 10.6794C13.8877 10.4971 13.5617 10.4 13.2285 10.4C12.8954 10.4 12.5694 10.4971 12.2906 10.6794C11.912 10.9205 11.4726 11.0485 11.0238 11.0485C10.575 11.0485 10.1355 10.9205 9.75697 10.6794C9.47814 10.4971 9.15219 10.4 8.81903 10.4C8.48586 10.4 8.15992 10.4971 7.88108 10.6794C7.50646 10.9291 7.06434 11.0579 6.61427 11.0485C6.1642 11.0579 5.72208 10.9291 5.34746 10.6794C5.07259 10.4887 4.74396 10.3907 4.40951 10.3999C4.07517 10.3908 3.74667 10.4887 3.47189 10.6794C3.09786 10.9288 2.65645 11.0576 2.20703 11.0485C1.75686 11.0579 1.31463 10.9291 0.939892 10.6794C0.664467 10.4883 0.335107 10.3904 0 10.3999V9.75123C0.450063 9.74193 0.892172 9.87073 1.26681 10.1203C1.54194 10.311 1.87076 10.409 2.20541 10.3999C2.53975 10.409 2.86825 10.311 3.14303 10.1203C3.51706 9.87098 3.95847 9.74218 4.40789 9.75123C4.85829 9.74166 5.30079 9.87048 5.67568 10.1203C5.95065 10.3111 6.27939 10.4091 6.61395 10.3999C6.9485 10.4091 7.27724 10.3111 7.55222 10.1203C7.93076 9.87922 8.37023 9.75115 8.81903 9.75115C9.26782 9.75115 9.7073 9.87922 10.0858 10.1203C10.3647 10.3027 10.6907 10.3998 11.0239 10.3998C11.3572 10.3998 11.6832 10.3027 11.9621 10.1203C12.3406 9.87922 12.7801 9.75115 13.2289 9.75115C13.6777 9.75115 14.1171 9.87922 14.4957 10.1203C14.7746 10.3027 15.1006 10.3998 15.4338 10.3998C15.767 10.3998 16.093 10.3027 16.3719 10.1203C16.7508 9.87931 17.1906 9.75131 17.6397 9.75131C18.0888 9.75131 18.5285 9.87931 18.9075 10.1203C19.1868 10.3026 19.5133 10.3997 19.8469 10.3997C20.1805 10.3997 20.5069 10.3026 20.7863 10.1203C21.1613 9.87088 21.6037 9.7421 22.0541 9.75123V10.3999C21.7188 10.3904 21.3892 10.4884 21.1135 10.6794C20.7386 10.9287 20.2965 11.0575 19.8464 11.0485V11.0485Z" fill="white"/>
<path d="M15.225 10.7735L14.613 10.5588C14.7707 10.1059 14.8351 9.62587 14.8023 9.14749C14.7696 8.66911 14.6405 8.20228 14.4227 7.77511L12.1949 3.41262C12.1729 3.36954 12.1608 3.32209 12.1595 3.27373C12.1582 3.22538 12.1678 3.17735 12.1875 3.13316C12.2072 3.08898 12.2365 3.04976 12.2733 3.01837C12.3101 2.98698 12.3534 2.96422 12.4002 2.95176L16.8399 1.76798C16.9845 1.73014 17.1084 1.6367 17.1846 1.50799C17.2607 1.37928 17.2829 1.22571 17.2464 1.0807C17.2099 0.935679 17.1176 0.810945 16.9896 0.733633C16.8616 0.656321 16.7082 0.632685 16.5629 0.667868L11.1895 1.95219C11.0746 1.97934 10.9675 2.03256 10.8765 2.10774C10.7855 2.18292 10.7131 2.27804 10.6647 2.38572C10.6164 2.49341 10.5935 2.61078 10.5979 2.72873C10.6022 2.84669 10.6336 2.96206 10.6897 3.06592L12.2854 6.03024C12.3258 6.10559 12.3349 6.19386 12.3106 6.27586C12.2863 6.35787 12.2306 6.42695 12.1556 6.46808L10.0962 7.60322L9.7832 7.035L11.5611 6.05489L10.1192 3.37338C10.016 3.18195 9.95831 2.96937 9.95044 2.75206C9.94257 2.53475 9.98478 2.31855 10.0738 2.12016C10.1629 1.92177 10.2963 1.74652 10.4639 1.60796C10.6315 1.46939 10.8287 1.37123 11.0403 1.32106L16.4111 0.0370572C16.7238 -0.0419486 17.055 0.00648876 17.332 0.171713C17.6089 0.336938 17.8089 0.605415 17.8879 0.918084C17.9669 1.23075 17.9185 1.562 17.7533 1.83896C17.588 2.11591 17.3195 2.31589 17.0069 2.39489L12.9548 3.47489L15.0006 7.47965C15.2582 7.98517 15.4109 8.53757 15.4495 9.10363C15.488 9.66969 15.4117 10.2377 15.225 10.7735V10.7735Z" fill="white"/>
<path d="M8.64927 7.66493L4.70801 9.83667L5.0209 10.4045L8.96215 8.23275L8.64927 7.66493Z" fill="white"/>
<path d="M18.1619 8.61611C17.6808 8.61611 17.2105 8.47345 16.8105 8.20618C16.4105 7.9389 16.0988 7.559 15.9147 7.11453C15.7305 6.67007 15.6824 6.18098 15.7762 5.70914C15.8701 5.23729 16.1018 4.80388 16.4419 4.46369C16.7821 4.12351 17.2155 3.89185 17.6874 3.79799C18.1592 3.70413 18.6483 3.7523 19.0928 3.93641C19.5372 4.12051 19.9171 4.43229 20.1844 4.8323C20.4517 5.23231 20.5944 5.70259 20.5944 6.18368C20.5937 6.82859 20.3372 7.44689 19.8812 7.90291C19.4251 8.35893 18.8068 8.61543 18.1619 8.61611V8.61611ZM18.1619 4.3999C17.8091 4.3999 17.4642 4.50452 17.1709 4.70052C16.8776 4.89653 16.6489 5.17512 16.5139 5.50106C16.3789 5.827 16.3436 6.18566 16.4124 6.53168C16.4812 6.8777 16.6511 7.19554 16.9006 7.44501C17.1501 7.69447 17.4679 7.86436 17.8139 7.93319C18.1599 8.00202 18.5186 7.96669 18.8445 7.83168C19.1705 7.69667 19.4491 7.46804 19.6451 7.1747C19.8411 6.88136 19.9457 6.53648 19.9457 6.18368C19.9451 5.71078 19.757 5.25742 19.4226 4.92302C19.0882 4.58863 18.6348 4.4005 18.1619 4.3999V4.3999Z" fill="white"/>
</svg>
