<svg width="20" height="20" viewBox="0 0 20 20" fill="none" xmlns="http://www.w3.org/2000/svg">
<g clip-path="url(#clip0_348_1024)">
<path d="M11.507 10.0018L1.46344 19.673C0.993117 19.3516 0.713877 18.817 0.718814 18.2473V1.75626C0.713877 1.18663 0.993117 0.65199 1.46344 0.330566L11.507 10.0018Z" fill="#2196F3"/>
<path d="M15.0217 6.62364L11.5074 10.0018L1.46387 0.330532C1.50171 0.301203 1.54113 0.273918 1.58191 0.248803C2.11272 -0.0729183 2.77574 -0.0833047 3.31639 0.22156L15.0217 6.62364Z" fill="#4CAF50"/>
<path d="M19.2811 10.0018C19.2877 10.6448 18.9382 11.2388 18.373 11.5456L15.0221 13.3799L11.5078 10.0018L15.0221 6.62366L18.373 8.458C18.9382 8.76474 19.2877 9.35872 19.2811 10.0018Z" fill="#F0BB1F"/>
<path d="M15.0217 13.3798L3.31639 19.7819C2.77455 20.0821 2.11404 20.0717 1.58191 19.7547C1.54113 19.7296 1.50171 19.7023 1.46387 19.6729L11.5074 10.0017L15.0217 13.3798Z" fill="#F15A2B"/>
</g>
<defs>
<clipPath id="clip0_348_1024">
<rect width="20" height="20" fill="white"/>
</clipPath>
</defs>
</svg>
