<svg width="139" height="36" viewBox="0 0 139 36" fill="none" xmlns="http://www.w3.org/2000/svg">
<circle cx="18" cy="18" r="18" fill="#F5F5F5"/>
<g clip-path="url(#clip0_348_1151)">
<path d="M24.6547 12.1508C24.2859 12.0429 15.2628 11.1445 12.094 15.4257C10.6905 17.3222 10.6695 19.9221 12.0236 23.1525C11.6801 23.8655 11.3794 24.6166 11.1343 25.4091C11.0598 25.6499 11.1946 25.9052 11.4351 25.9795C11.48 25.9934 11.5254 26 11.5702 26C11.7647 26 11.9453 25.8743 12.0055 25.6787C14.4207 17.8703 22.2697 14.0927 24.6766 13.1383C24.9108 13.0454 25.2239 12.3174 24.6547 12.1508Z" fill="#84829A"/>
<path d="M13.4717 24.1297C14.7781 24.6777 16.0843 24.9586 17.299 24.9586C18.3908 24.9586 19.409 24.7341 20.2864 24.2789C22.0522 23.3629 23.1313 21.6107 23.4068 19.2112C23.6876 16.7658 24.0371 15.2341 24.3286 14.297C21.7333 15.4942 16.1685 18.5973 13.4717 24.1297Z" fill="#84829A"/>
</g>
<circle cx="121" cy="18" r="18" fill="#F5F5F5"/>
<path d="M126.343 13.2425L120.025 19.5833C119.953 19.5414 119.877 19.5062 119.798 19.4783L115.627 18.0667C115.501 18.0351 115.389 17.9622 115.309 17.8597C115.229 17.7572 115.186 17.6309 115.186 17.5008C115.186 17.3708 115.229 17.2445 115.309 17.142C115.389 17.0395 115.501 16.9666 115.627 16.935L125.975 13.2542C126.043 13.2312 126.114 13.2194 126.185 13.2192C126.239 13.2183 126.292 13.2262 126.343 13.2425V13.2425Z" fill="#84829A"/>
<path d="M126.746 14.0242L123.065 24.3842C123.025 24.5049 122.946 24.609 122.84 24.6807C122.735 24.7523 122.609 24.7875 122.482 24.7808C122.353 24.7867 122.226 24.7499 122.121 24.676C122.015 24.6021 121.937 24.4954 121.899 24.3725L120.51 20.2017C120.482 20.1227 120.447 20.0466 120.405 19.9742L126.758 13.6567C126.794 13.7772 126.79 13.9061 126.746 14.0242V14.0242Z" fill="#84829A"/>
<circle cx="72" cy="18" r="18" fill="#F5F5F5"/>
<g clip-path="url(#clip1_348_1151)">
<path d="M77.501 11C77.4233 11 77.3467 11.018 77.2773 11.0527L73.4883 12.9477L69.2039 11.0432C69.1969 11.0403 69.1889 11.0397 69.1814 11.0367C69.1621 11.0295 69.1424 11.0235 69.1224 11.0187C69.1025 11.0134 69.0823 11.0092 69.0619 11.0062C69.0213 11.0029 68.9805 11.0029 68.9399 11.0062C68.9195 11.0092 68.8993 11.0134 68.8794 11.0187C68.8594 11.0235 68.8397 11.0295 68.8204 11.0367C68.8129 11.0397 68.8049 11.0402 68.7979 11.0432L64.298 13.0432C64.1173 13.1234 64.0009 13.3026 64.001 13.5002V24.5C64.0011 24.6692 64.0866 24.8268 64.2285 24.919C64.3703 25.0114 64.5492 25.0257 64.7039 24.957L69.0009 23.047L73.2978 24.957C73.3053 24.96 73.3133 24.957 73.3208 24.9615C73.4419 25.0157 73.5808 25.0126 73.6993 24.953C73.7073 24.9496 73.7163 24.953 73.7243 24.9475L77.7242 22.9476C77.8937 22.8629 78.0008 22.6896 78.0007 22.5V11.5002C78.0009 11.2241 77.7771 11.0001 77.501 11ZM68.5009 22.1751L65.001 23.7305V13.8252L68.5009 12.2697V22.1751ZM73.0008 23.7305L69.5009 22.1751V12.2697L73.0008 13.8252V23.7305ZM77.0008 22.1911L74.0008 23.691V13.8092L77.0008 12.3092V22.1911V22.1911Z" fill="#84829A"/>
</g>
<defs>
<clipPath id="clip0_348_1151">
<rect width="14" height="14" fill="white" transform="translate(11 12)"/>
</clipPath>
<clipPath id="clip1_348_1151">
<rect width="14" height="14" fill="white" transform="translate(64 11)"/>
</clipPath>
</defs>
</svg>
