<svg width="119" height="154" viewBox="0 0 119 154" fill="none" xmlns="http://www.w3.org/2000/svg">
<path d="M71.8196 86.8472C70.4613 87.1514 69.1383 87.715 67.9327 88.5024C64.7919 90.5037 62.9646 93.3604 63.8516 94.8826C64.7385 96.4047 68.0036 96.0154 71.1444 94.0141C72.3662 93.2545 73.4515 92.2837 74.3337 91.1618C74.7431 90.6197 74.8166 89.9442 74.5213 89.4393L73.3691 87.4619C73.076 86.9554 72.4679 86.7145 71.8196 86.8472Z" fill="#D5D6DB"/>
<path d="M63.932 59.8542C62.9471 60.075 61.9876 60.4838 61.1134 61.0548C58.8365 62.5056 57.5108 64.577 58.1534 65.6798C58.796 66.7826 61.1644 66.5001 63.441 65.0494C64.3269 64.4984 65.1139 63.7941 65.7537 62.9804C66.0501 62.5875 66.1033 62.0982 65.8893 61.7321L65.055 60.3003C64.8427 59.9331 64.4021 59.7581 63.932 59.8542Z" fill="#D5D6DB"/>
<path d="M51.1175 60.9845C50.8983 60.96 50.6645 61.0184 50.4617 61.148L45.1135 64.5562C44.6662 64.8404 44.4872 65.3877 44.7141 65.7789C44.766 65.8685 44.837 65.9451 44.9232 66.0041L58.1049 75.089L75.9384 63.7243L51.1175 60.9845Z" fill="#029BC5"/>
<path d="M107.495 59.6999L58.9629 90.252L30.2502 101.677L15.607 104.588L13.9961 101.851L94.8912 51.9043C97.302 50.4095 99.9876 49.4919 102.676 49.2448C103.854 49.1429 105.017 49.1821 106.138 49.3609C107.132 49.5116 108.075 49.8023 108.939 50.2244C109.902 50.7026 111.737 50.7578 112.331 51.7106C112.333 51.7091 113.735 56.0835 107.495 59.6999V59.6999Z" fill="#E1E6E9"/>
<path d="M59.6063 86.2095L38.611 119.679C38.3488 120.15 38.5044 120.676 38.9583 120.855C39.2369 120.965 39.5778 120.922 39.8642 120.74L45.2082 117.35C46.2361 116.697 47.1462 115.869 47.8823 114.915L88.5987 67.0463L59.6063 86.2095Z" fill="#029BC5"/>
<path d="M6.62667 85.092C6.27645 84.9723 5.85966 85.0344 5.50784 85.2584L1.09034 88.0718C0.488427 88.4549 0.248576 89.1913 0.554438 89.717C0.612713 89.8169 0.688413 89.9049 0.779149 89.9773L13.1559 99.8897L26.1689 91.7615L6.62667 85.092Z" fill="#029BC5"/>
<path d="M17.3045 101.676L10.643 111.006C10.5453 111.14 10.5683 111.308 10.6942 111.382C10.7851 111.435 10.9091 111.425 11.0099 111.357L15.1381 108.742C15.1702 108.721 15.1992 108.696 15.2232 108.667L24.9568 96.8319L17.3045 101.676Z" fill="#029BC5"/>
<path d="M105.341 49.7631C104.187 49.5777 102.989 49.5381 101.776 49.6447C100.595 51.2958 99.8407 53.1505 99.5873 55.0239C99.5688 55.4002 99.8722 55.6711 100.265 55.6289C100.387 55.6157 100.509 55.5727 100.618 55.504L108.226 50.6597C107.336 50.2211 106.365 49.9193 105.341 49.7631Z" fill="#029BC5"/>
<path d="M88.7617 58.6713L93.7287 55.5343L98.3553 63.4033L93.3883 66.5403L88.7617 58.6713Z" fill="#D5D6DB"/>
<path d="M85.6368 61.7836C85.0383 62.1628 84.799 62.8916 85.1029 63.4113L85.5952 64.2532C85.919 64.7597 86.6583 64.8488 87.2466 64.4521C87.8064 64.0743 88.0319 63.3876 87.7621 62.8806L87.2698 62.0386C86.9662 61.5193 86.2353 61.4051 85.6368 61.7836V61.7836Z" fill="#3A556A"/>
<path d="M81.1729 64.5561C80.5744 64.9352 80.3352 65.664 80.639 66.1837L81.1313 67.0257C81.4552 67.5322 82.1945 67.6212 82.7827 67.2245C83.3426 66.8467 83.568 66.1601 83.2982 65.653L82.8059 64.8111C82.502 64.2919 81.7712 64.1777 81.1729 64.5561V64.5561Z" fill="#3A556A"/>
<path d="M76.7068 67.3294C76.1089 67.709 75.8706 68.4369 76.1742 68.9562L76.6665 69.7981C76.9903 70.3046 77.7296 70.3936 78.3179 69.9969C78.8777 69.6191 79.1032 68.9325 78.8334 68.4255L78.3411 67.5835C78.0372 67.0638 77.3056 66.95 76.7068 67.3294V67.3294Z" fill="#3A556A"/>
<path d="M72.243 70.1018C71.6451 70.4814 71.4067 71.2094 71.7103 71.7286L72.2026 72.5706C72.5265 73.0771 73.2658 73.1662 73.854 72.7694C74.4139 72.3917 74.6393 71.705 74.3695 71.198L73.8772 70.356C73.5731 69.8364 72.8415 69.7226 72.243 70.1018V70.1018Z" fill="#3A556A"/>
<path d="M67.7788 72.8745C67.1805 73.2543 66.942 73.9825 67.2458 74.502L67.7384 75.3443C68.0421 75.8636 68.7733 75.9773 69.3717 75.5983C69.9701 75.2193 70.209 74.4912 69.9053 73.9719L69.4127 73.1296C69.1098 72.6098 68.3788 72.4953 67.78 72.8737C67.7795 72.874 67.7793 72.8741 67.7788 72.8745Z" fill="#3A556A"/>
<path d="M63.3139 75.6469C62.7157 76.0267 62.4772 76.755 62.781 77.2745L63.2736 78.1168C63.5772 78.6361 64.3085 78.7498 64.9068 78.3708C65.5052 77.9918 65.7441 77.2636 65.4404 76.7443L64.9478 75.902C64.6449 75.3823 63.9139 75.2678 63.3152 75.6461C63.3147 75.6464 63.3142 75.6468 63.3139 75.6469Z" fill="#3A556A"/>
<path d="M58.8491 78.4194C58.2508 78.7992 58.0123 79.5274 58.3161 80.0469L58.8087 80.8892C59.1131 81.408 59.8447 81.5206 60.4424 81.1411C61.0392 80.7622 61.2776 80.0356 60.9753 79.517L60.4827 78.6746C60.1792 78.155 59.4479 78.0407 58.8491 78.4194Z" fill="#3A556A"/>
<path d="M54.3852 81.1918C53.787 81.5716 53.5484 82.2999 53.8522 82.8194L54.3448 83.6617C54.6492 84.1805 55.3809 84.2931 55.9786 83.9136C56.5753 83.5347 56.8137 82.8081 56.5114 82.2894L56.0188 81.4471C55.7153 80.9274 54.9841 80.8131 54.3852 81.1918Z" fill="#3A556A"/>
<path d="M49.9203 83.9643C49.3221 84.3441 49.0836 85.0723 49.3874 85.5918L49.88 86.4341C50.1844 86.9529 50.916 87.0655 51.5137 86.686C52.1104 86.3072 52.3488 85.5805 52.0466 85.0619L51.554 84.2196C51.2502 83.7001 50.519 83.5858 49.9203 83.9643Z" fill="#3A556A"/>
<path d="M45.4545 86.7375C44.8562 87.1165 44.6173 87.8447 44.9209 88.3639L44.9216 88.365L45.4142 89.2074C45.7186 89.7262 46.4502 89.8387 47.0479 89.4592C47.6446 89.0804 47.883 88.3537 47.5808 87.8351L47.0882 86.9927C46.7846 86.4731 46.0534 86.3588 45.4545 86.7375Z" fill="#3A556A"/>
<path d="M40.9916 89.5092C40.3933 89.8882 40.1544 90.6164 40.458 91.1356L40.4587 91.1367L40.9513 91.979C41.2557 92.4978 41.9873 92.6104 42.5851 92.2309C43.1818 91.8521 43.4202 91.1254 43.1179 90.6068L42.6253 89.7645C42.3215 89.245 41.5903 89.1307 40.9916 89.5092Z" fill="#3A556A"/>
</svg>
